<?xml version="1.0" encoding="UTF-8"?>
<svg id="_Слой_2" data-name="Слой 2" xmlns="http://www.w3.org/2000/svg" viewBox="0 0 70 70">
  <defs>
    <style>
      .cls-1 {
        fill: #fff;
      }

      .cls-1, .cls-2 {
        stroke-width: 0px;
      }

      .cls-2 {
        fill: #b4e4e6;
      }
    </style>
  </defs>
  <g id="_Слой_1-2" data-name="Слой 1">
    <g>
      <rect class="cls-2" width="70" height="70" rx="11.6" ry="11.6"/>
      <path class="cls-1" d="m20.78,47.6c0,1,.01,1.94,0,2.88-.02,1.6-1.01,2.59-2.62,2.61-1.05.01-2.09.01-3.14,0-1.5-.02-2.62-.99-2.61-2.48,0-4.65,0-9.31.19-13.96.06-1.5.71-2.98,1.1-4.47.06-.24.16-.46.24-.7-2.43-.43-3.58-2.74-2.55-5,.43-.93,1.43-1.3,2.61-.98.71.2,1.43.39,2.17.59.8-1.95,1.62-3.81,2.34-5.71.77-2.06,3.09-3.52,5.16-3.5,7.62.06,15.24.02,22.86.03,2.32,0,4.21,1.29,5.1,3.45.77,1.86,1.53,3.72,2.3,5.58.02.04.06.07.14.15.69-.19,1.41-.39,2.12-.58,1.64-.45,2.78.39,2.81,2.08,0,.27,0,.55,0,.82,0,1.91-.82,2.83-2.69,3.04.37,1.39.83,2.77,1.1,4.19.23,1.19.33,2.42.34,3.63.04,3.61.02,7.22.01,10.83,0,.81-.06,1.66-.73,2.19-.48.38-1.11.71-1.7.77-1.16.12-2.34.05-3.51.03-1.33-.02-2.34-.92-2.42-2.25-.07-1.06-.01-2.13-.01-3.23h-28.61Zm14.32-15.72c5.15,0,10.3,0,15.46,0,1.6,0,2.07-.7,1.46-2.18-1.16-2.83-2.31-5.65-3.48-8.48-.67-1.63-1.69-2.32-3.44-2.32-6.67,0-13.34,0-20.01,0-1.79,0-2.82.69-3.5,2.35-1.15,2.8-2.3,5.6-3.45,8.41-.62,1.52-.15,2.22,1.49,2.22,5.15,0,10.3,0,15.46,0Zm13.15,10.84c1.1,0,2.19.02,3.29,0,.98-.02,1.33-.4,1.34-1.39,0-.92,0-1.84,0-2.76,0-.95-.37-1.33-1.3-1.33-2.22,0-4.43,0-6.65,0-.95,0-1.28.35-1.29,1.33-.01.92,0,1.84,0,2.76,0,1.04.35,1.38,1.4,1.39,1.07.02,2.14,0,3.21,0Zm-26.4-5.49c-1.15,0-2.29-.01-3.44,0-.8.01-1.15.34-1.18,1.13-.03,1.07-.02,2.14,0,3.21,0,.73.43,1.12,1.12,1.13,2.31.02,4.63.03,6.94,0,.81-.01,1.13-.42,1.14-1.25.01-1,.01-1.99,0-2.99-.01-.86-.37-1.22-1.23-1.23-1.12-.01-2.24,0-3.36,0Z"/>
    </g>
  </g>
</svg>