<?xml version="1.0" encoding="UTF-8"?>
<svg id="_Слой_2" data-name="Слой 2" xmlns="http://www.w3.org/2000/svg" viewBox="0 0 41 27">
  <defs>
    <style>
      .cls-1 {
        fill: #0d6032;
        stroke-width: 0px;
      }
    </style>
  </defs>
  <g id="_Слой_1-2" data-name="Слой 1">
    <path class="cls-1" d="m39.02,0H1.71c-.43,0-.83.21-1.08.55-.38.36-.63.87-.63,1.44v23.03c0,1.1.89,1.99,1.98,1.99h37.31c.43,0,.83-.21,1.08-.55.38-.36.63-.87.63-1.44V1.99c0-1.1-.89-1.99-1.98-1.99Zm-.33,23.38l-11.95-9.88,11.95-9.88v19.76Zm-13.77-11.38l-.91.75-.91.75-2.6,2.15-2.6-2.15-.91-.75-.91-.75L4.38,2.32h32.24l-11.71,9.68ZM2.31,3.62l11.95,9.88L2.31,23.38V3.62Zm13.77,11.38l3.68,3.04c.21.18.47.26.74.26s.52-.09.74-.26l3.68-3.04,11.71,9.68H4.38l11.71-9.68Z"/>
  </g>
</svg>