<?xml version="1.0" encoding="UTF-8"?>
<svg id="_Слой_2" data-name="Слой 2" xmlns="http://www.w3.org/2000/svg" viewBox="0 0 27.09 26.99">
  <defs>
    <style>
      .cls-1 {
        fill: #0d6032;
        stroke-width: 0px;
      }
    </style>
  </defs>
  <g id="_Слой_1-2" data-name="Слой 1">
    <path class="cls-1" d="m13.31,5.68c.43.22.85.43,1.28.66.81-1.05,1.35-2.2,1.59-3.47.11-.6.15-1.21.18-1.81C16.41.4,16.72,0,17.25,0c.53,0,.87.39.87,1.05.02,2.18-.61,4.15-1.83,5.95-.07.1-.13.21-.21.33.42.35.82.68,1.31,1.09.38-.41.74-.82,1.12-1.21,1.19-1.2,2.37-2.4,3.58-3.58.21-.2.54-.4.8-.38.27.03.59.27.75.51.19.3.1.67-.17.95-.41.43-.84.84-1.26,1.26-1.21,1.2-2.41,2.4-3.64,3.61.4.48.77.92,1.14,1.38,1.33-.98,2.77-1.66,4.39-1.92.69-.11,1.4-.14,2.1-.15.51-.01.87.38.88.85,0,.47-.38.85-.91.89-.62.05-1.25.06-1.86.16-1.33.23-2.52.79-3.6,1.64.23.43.45.86.67,1.28,1.46-.92,2.76-.91,3.87.03.49.41.59.93.27,1.35-.32.41-.86.42-1.37.03-.84-.65-1.58-.24-2.09.44-.09.12-.03.36-.01.54.13,1.07-.02,2.08-.79,2.88-.3.31-.71.57-1.12.73-6.24,2.4-12.49,4.77-18.74,7.15-.58.22-.96.16-1.23-.19-.25-.32-.22-.66-.08-1.02,1.89-4.85,3.78-9.71,5.66-14.56.52-1.34,1.03-2.68,1.55-4.01.59-1.51,1.81-2.3,3.42-2.06.66.1,1-.18,1.3-.65.28-.44.2-1-.17-1.48-.37-.48-.35-1.02.04-1.33.39-.32.94-.23,1.32.22.95,1.09.99,2.39.09,3.9Zm.11,2.03c-1.1-.55-2.07-.99-3.19-.95-.77.03-1.23.4-1.24,1.17,0,.6.05,1.24.26,1.78,1.47,3.71,4.11,6.31,7.69,7.99.53.25,1.13.37,1.71.45,1.12.16,1.75-.42,1.7-1.54-.04-1.05-.45-1.99-.99-2.95-.2.22-.37.41-.54.59-.17.18-.35.36-.53.53-.44.43-.96.47-1.33.11-.39-.38-.37-.89.1-1.35.45-.45.93-.88,1.41-1.33-.42-.5-.76-.91-1.14-1.36-.94.95-1.82,1.86-2.72,2.75-.38.38-.91.39-1.26.06-.38-.36-.38-.87.02-1.29.57-.6,1.16-1.18,1.76-1.76.32-.31.68-.59,1.06-.92-.52-.42-.9-.73-1.33-1.08-.43.45-.82.87-1.23,1.28-.42.41-.92.42-1.29.05-.35-.35-.34-.89.05-1.29.31-.31.64-.59,1.03-.95ZM2.41,24.6c2.98-1.13,5.84-2.23,8.76-3.34-2.18-1.41-3.95-3.16-5.4-5.3-1.12,2.89-2.22,5.72-3.35,8.64Zm13.78-5.25c-3.8-1.87-6.59-4.66-8.45-8.47-.38.97-.74,1.88-1.08,2.8-.04.12,0,.31.07.43,1.51,2.68,3.63,4.75,6.35,6.19.12.06.31.1.43.06.87-.31,1.74-.65,2.68-1.01Z"/>
  </g>
</svg>