<?xml version="1.0" encoding="UTF-8"?>
<svg id="_Слой_2" data-name="Слой 2" xmlns="http://www.w3.org/2000/svg" viewBox="0 0 24.4 30">
  <defs>
    <style>
      .cls-1 {
        fill: #0d6032;
        stroke-width: 0px;
      }
    </style>
  </defs>
  <g id="_Слой_1-2" data-name="Слой 1">
    <g>
      <path class="cls-1" d="m12.2,30c-.36,0-.71-.13-.98-.4C10.07,28.48,0,18.45,0,12.12,0,5.44,5.47,0,12.2,0s12.2,5.44,12.2,12.12c0,6.33-10.07,16.35-11.22,17.48-.27.27-.63.4-.98.4Zm0-27.19C7.02,2.81,2.81,6.99,2.81,12.12c0,3.94,6.07,11.04,9.39,14.47,3.31-3.43,9.39-10.54,9.39-14.47,0-5.13-4.21-9.31-9.39-9.31Z"/>
      <ellipse class="cls-1" cx="12.2" cy="12.12" rx="4.82" ry="4.79"/>
    </g>
  </g>
</svg>