<?xml version="1.0" encoding="UTF-8"?>
<svg id="_Слой_2" data-name="Слой 2" xmlns="http://www.w3.org/2000/svg" viewBox="0 0 327.37 204.74">
  <defs>
    <style>
      .cls-1 {
        fill: none;
      }

      .cls-1, .cls-2, .cls-3 {
        stroke-width: 0px;
      }

      .cls-2 {
        fill: #b4e4e6;
      }

      .cls-3 {
        fill: #0d6032;
      }
    </style>
  </defs>
  <g id="_Слой_1-2" data-name="Слой 1">
    <g>
      <path class="cls-3" d="m171.11,68.25h-8.41c-8.06,0-12.68,3.29-12.68,11.77v15.77c0,7.36,4.2,10.72,9.6,13.24l-.07,1.12-5.68-.77-5.26,26.98h7.08l3.57-22.42c.35-2.31,1.96-3.57,4.83-2.24v24.66h7.01v-68.11Zm-14.08,33.21v-19.06c0-6.1,1.68-7.78,6.38-7.78h.77v34.68l-1.75-.77c-4.27-1.75-5.4-3.85-5.4-7.08Zm29.08-1.82h7.92v-31.39h7.01v68.18h-7.01v-34.89h-7.92v34.96h-7.01v-68.25h7.01v31.39Zm29.92-23.82l-2.24,22.07.91.21,8.62-29.78h8.41v6.24l-2.03.56c-5.12,1.4-6.94,7.22-10.44,16.47-.98,2.45-1.75,4.97-2.38,7.57l.63.63,8.13-.77,6.17,37.49h-7.57l-3.43-26.42c-.91-7.29-1.89-8.76-4.41-8.34-.21,1.26-.28,2.45-.28,3.71v31.04h-7.01v-68.25h7.01l-.07,7.57Zm16.12,60.68l10.3-58.79-3.99-9.46h9.25l11.42,68.18h-7.85l-2.45-19.13h-7.01l-1.19,19.13h-8.48v.07Zm9.81-21.02h6.52l-1.68-13.52-1.75-18.71h-1.05l-2.03,32.23Zm-105.88-47.23h-9.25l3.99,9.46-10.23,58.79h8.41l3.43-53.25h1.05l1.75,18.71,4.41,34.54h7.85l-11.42-68.25Zm-24.87,32.72v24.73c0,3.29-.56,5.33-3.01,5.33-2.24,0-4.13-1.05-4.13-7.78v-21.44c-2.94.91-5.75,2.31-7.01,4.76v1.12h0v.28h.14-.14v18.43c0,8.06,3.57,10.93,10.02,10.93,6.1,0,11.14-3.43,11.14-12.61v-21.72c-2.1-1.26-4.48-1.96-7.01-2.03Zm-21.02-32.72v68.18h-7.01v-66.29h-7.92v66.36h-7.01v-68.25h21.93Z"/>
      <path class="cls-2" d="m104.12,94.52v-15.49c0-3.29.63-5.33,3.43-5.33,1.89,0,3.64,1.05,3.64,7.78v14.5c2.03.7,3.99,1.68,5.82,2.94.21.14.42.21.63.35l.56.42v-21.44c0-8.06-3.43-10.93-9.95-10.93-6.1,0-11.14,3.43-11.14,12.61v15.14c2.31-.49,4.62-.7,7.01-.56Z"/>
      <polygon class="cls-1" points="159.72 31.39 167.64 31.39 167.64 0 174.65 0 174.65 68.18 167.64 68.18 167.64 33.28 159.72 33.28 159.72 68.25 152.72 68.25 152.72 0 159.72 0 159.72 31.39"/>
      <polygon class="cls-1" points="31.39 106.75 31.39 98.83 0 98.83 0 91.83 68.18 91.83 68.18 98.83 33.28 98.83 33.28 106.75 68.25 106.75 68.25 113.76 0 113.76 0 106.75 31.39 106.75"/>
      <polygon class="cls-1" points="290.51 106.75 290.51 98.83 259.12 98.83 259.12 91.83 327.3 91.83 327.3 98.83 292.4 98.83 292.4 106.75 327.37 106.75 327.37 113.76 259.12 113.76 259.12 106.75 290.51 106.75"/>
      <polygon class="cls-1" points="159.72 167.89 167.64 167.89 167.64 136.5 174.65 136.5 174.65 204.67 167.64 204.67 167.64 169.78 159.72 169.78 159.72 204.74 152.72 204.74 152.72 136.5 159.72 136.5 159.72 167.89"/>
    </g>
  </g>
</svg>