<?xml version="1.0" encoding="UTF-8"?>
<svg id="_Слой_2" data-name="Слой 2" xmlns="http://www.w3.org/2000/svg" viewBox="0 0 29.41 30.5">
  <defs>
    <style>
      .cls-1 {
        fill: #0d6032;
        stroke-width: 0px;
      }
    </style>
  </defs>
  <g id="_Слой_1-2" data-name="Слой 1">
    <g>
      <path class="cls-1" d="m29.34,5.52c-.36-1.4-1.44-2.24-2.9-2.26-.52,0-1.04,0-1.58,0h-.51s0-1.43,0-1.43c0-1.17-.62-1.79-1.79-1.82-.47,0-.94,0-1.42,0h-.51c-1.32,0-1.86.54-1.86,1.86v1.37h-8.12v-.54c0-.35,0-.71-.01-1.06-.02-1.01-.61-1.61-1.61-1.63-.81-.02-1.53-.02-2.21,0-1.12.03-1.74.67-1.75,1.81v1.44c-.16,0-.32,0-.47,0-.49,0-.95.01-1.41-.01-.84-.05-1.65.24-2.24.81C.33,4.67-.02,5.52,0,6.42c.05,2.32.04,4.68.03,6.96,0,.97,0,1.95,0,2.92v3.21c0,2.6,0,5.2,0,7.81,0,1.82,1.4,3.19,3.23,3.19,2.71,0,5.42,0,8.13,0,4.93,0,9.86,0,14.78,0,.21,0,.46,0,.7-.04,1.5-.27,2.54-1.62,2.54-3.28,0-7,0-13.99,0-20.99,0-.2,0-.44-.07-.66ZM1.95,6.14c0-.49.38-.89.85-.91.56-.03,1.13-.02,1.72-.02.18,0,.36,0,.55,0,0,.15,0,.28,0,.42.02.96.66,1.66,1.58,1.7.78.04,1.61.04,2.55,0,.79-.03,1.4-.68,1.45-1.56.01-.17,0-.35,0-.54h8.13c0,.13,0,.28,0,.43.02,1.03.67,1.67,1.68,1.69.64,0,1.28,0,1.93,0,1.33,0,1.96-.63,1.97-1.95v-.14c.2,0,.39,0,.58,0,.66-.01,1.28-.02,1.9.03.39.03.64.48.64.89,0,.97,0,1.95,0,2.94v.97H1.95v-.98c0-1,0-1.98,0-2.96Zm18.75-.75V1.99h1.7v3.4h-1.7Zm-13.57,0V1.99h1.5v3.4h-1.5Zm20.35,6.7v2.94c0,3.98,0,7.97,0,11.95,0,.27-.05.57-.15.83-.18.5-.5.72-1,.73h-.75s-22.16,0-22.16,0c-1.02,0-1.47-.45-1.48-1.47,0-4.24,0-8.49,0-12.73v-2.12s0-.09,0-.14h25.53Z"/>
      <path class="cls-1" d="m9.62,20.66c.33.31.65.62.98.93.14.14.19.21.14.41-.22,1.05-.4,2.13-.58,3.23-.05.29.02.57.2.78.19.23.5.36.86.36h.05s.12-.04.12-.04c.1-.03.23-.09.36-.15.31-.16.62-.32.93-.48.62-.32,1.23-.64,1.85-.95.09-.04.27-.04.36,0,.71.35,1.42.72,2.12,1.09l.66.35c.3.16.75.33,1.19-.01.44-.34.42-.81.35-1.17-.21-1.11-.39-2.11-.54-3.07-.01-.08.04-.23.1-.3.72-.72,1.48-1.44,2.15-2.08.26-.25.66-.63.47-1.23-.18-.57-.7-.65-1.1-.71l-.73-.11c-.74-.11-1.48-.22-2.22-.35-.1-.02-.24-.13-.29-.22-.5-.95-.98-1.92-1.37-2.75-.17-.35-.43-.74-.97-.75h-.01c-.62,0-.88.54-.97.74l-.13.27c-.4.82-.81,1.67-1.24,2.49-.05.09-.19.21-.29.22-.71.13-1.43.23-2.15.34l-.84.13c-.38.06-.89.14-1.06.7-.17.56.16.95.43,1.2.4.37.79.75,1.19,1.13Zm7.03,1.18c.11.51.19,1.03.27,1.57.01.07.02.15.04.23l-.19-.1c-.48-.25-.93-.5-1.38-.75-.47-.26-.92-.26-1.39,0-.44.25-.89.49-1.36.74l-.2.11.04-.23c.08-.52.16-1.01.26-1.5.12-.58-.03-1.02-.47-1.44-.36-.34-.69-.71-1.01-1.07-.03-.04-.07-.08-.1-.12l.1-.02c.48-.07.99-.15,1.5-.21.56-.06.92-.31,1.13-.79.22-.48.46-.94.71-1.43.04-.07.08-.15.11-.22l.12.25c.26.5.5.98.73,1.47.2.44.53.66,1.02.72.53.06,1.05.14,1.54.21l.11.02-.12.14c-.34.39-.69.77-1.06,1.15-.38.39-.5.78-.4,1.27Z"/>
    </g>
  </g>
</svg>