<?xml version="1.0" encoding="UTF-8"?>
<svg id="_Слой_2" data-name="Слой 2" xmlns="http://www.w3.org/2000/svg" viewBox="0 0 70 70">
  <defs>
    <style>
      .cls-1 {
        fill: #fff;
      }

      .cls-1, .cls-2 {
        stroke-width: 0px;
      }

      .cls-2 {
        fill: #b4e4e6;
      }
    </style>
  </defs>
  <g id="_Слой_1-2" data-name="Слой 1">
    <g>
      <rect class="cls-2" width="70" height="70" rx="11.6" ry="11.6"/>
      <path class="cls-1" d="m40.99,55.01h-12.01c0,.37.02.71,0,1.05-.09,1.65-1.28,2.86-2.93,2.91-1.37.05-2.75.05-4.12,0-1.75-.06-2.91-1.33-2.94-3.22,0-.59-.13-.9-.75-1.12-2.07-.73-3.22-2.5-3.23-4.89-.01-4.6,0-9.19,0-13.79,0-.29,0-.59,0-.96-.43,0-.78.02-1.12,0-1.45-.09-2.67-1.04-2.8-2.45-.12-1.28-.14-2.62.12-3.87.36-1.68,1.54-2.83,3.19-3.39.51-.17.63-.41.62-.9-.02-2.67-.02-5.35,0-8.02.01-3.31,2.07-5.36,5.39-5.36,9.72,0,19.44,0,29.17,0,3.36,0,5.4,2.04,5.41,5.42,0,2.6,0,5.2,0,7.79,0,.27,0,.54,0,.82.06-.06.12-.11.18-.17.89.65,1.85,1.23,2.64,1.98.87.82,1.16,1.95,1.18,3.14.01.6,0,1.2,0,1.8-.03,1.95-1.24,3.17-3.18,3.21-.25,0-.49,0-.83,0,0,.35,0,.64,0,.93,0,4.52,0,9.04,0,13.56,0,2.74-1.04,4.27-3.55,5.3-.19.08-.36.35-.4.57-.11.51-.07,1.05-.2,1.55-.31,1.16-1.46,2.02-2.76,2.05-1.37.04-2.75.04-4.12,0-1.69-.05-2.88-1.28-2.95-2.97-.01-.3,0-.6,0-.99Zm-5.97-32.01c-4.17,0-8.35,0-12.52,0-2.34,0-3.52,1.16-3.53,3.48,0,3.02,0,6.04,0,9.07,0,2.23,1.21,3.45,3.42,3.45,8.4,0,16.79,0,25.19,0,2.19,0,3.4-1.21,3.41-3.38.02-3.07.02-6.14,0-9.21-.01-2.23-1.22-3.4-3.46-3.4-4.17,0-8.35,0-12.52,0Zm-.03-7.98s0,.01,0,.02c-3.72,0-7.45-.02-11.17.01-1.32.01-2.41.96-2.71,2.19-.31,1.27.15,2.64,1.29,3.24.65.34,1.47.51,2.21.51,6.92.04,13.85.02,20.77.02.37,0,.75-.04,1.12-.09,1.38-.22,2.38-1.33,2.45-2.71.1-1.87-1.16-3.17-3.16-3.18-3.6-.02-7.2,0-10.8,0Zm-11.02,33.93c1.66,0,3.01-1.32,3.02-2.97,0-1.63-1.39-3.01-3.01-3-1.62.01-2.93,1.33-2.95,2.95-.02,1.69,1.26,3,2.95,3.01Zm21.99,0c1.69.01,2.99-1.27,3-2.96,0-1.66-1.34-3.01-2.98-3-1.61.01-2.94,1.32-2.98,2.95-.05,1.63,1.31,3,2.97,3.01Z"/>
    </g>
  </g>
</svg>