<?xml version="1.0" encoding="UTF-8"?>
<svg id="_Слой_2" data-name="Слой 2" xmlns="http://www.w3.org/2000/svg" viewBox="0 0 356.84 356.84">
  <defs>
    <style>
      .cls-1 {
        fill: #fff;
        stroke-width: 0px;
      }

      .cls-2 {
        opacity: .3;
      }
    </style>
  </defs>
  <g id="_Слой_1-2" data-name="Слой 1">
    <g class="cls-2">
      <path class="cls-1" d="m222.98,327.14h-89.25c0,2.73.12,5.26-.02,7.78-.69,12.28-9.5,21.25-21.82,21.66-10.21.34-20.45.36-30.65,0-13.03-.45-21.62-9.86-21.85-23.93-.07-4.42-.97-6.72-5.61-8.36-15.41-5.44-23.92-18.61-23.98-36.37-.1-34.17-.03-68.34-.03-102.51,0-2.18,0-4.36,0-7.11-3.2,0-5.76.13-8.31-.02-10.78-.67-19.86-7.74-20.83-18.18-.89-9.5-1.06-19.49.9-28.74,2.65-12.51,11.45-21.05,23.69-25.21,3.76-1.28,4.66-3.02,4.63-6.71-.17-19.87-.14-39.74-.06-59.61C29.89,15.19,45.19.02,69.89.01c72.28-.02,144.56-.02,216.83,0,24.98,0,40.15,15.19,40.22,40.27.05,19.31.01,38.63.01,57.94,0,2.02,0,4.04,0,6.07.45-.42.9-.84,1.36-1.26,6.6,4.86,13.74,9.15,19.66,14.73,6.46,6.08,8.65,14.52,8.81,23.35.08,4.46.07,8.91.01,13.37-.2,14.53-9.19,23.6-23.64,23.89-1.83.04-3.66,0-6.19,0,0,2.6,0,4.77,0,6.94,0,33.61.02,67.23,0,100.84-.02,20.36-7.74,31.72-26.37,39.43-1.38.57-2.67,2.63-3,4.2-.79,3.79-.5,7.83-1.5,11.53-2.33,8.62-10.84,14.99-20.48,15.27-10.21.3-20.44.33-30.65.01-12.56-.39-21.39-9.51-21.95-22.11-.1-2.21-.01-4.44-.01-7.33Zm-44.36-237.94c-31.02,0-62.04,0-93.06,0-17.4,0-26.17,8.62-26.22,25.88-.06,22.46-.07,44.93,0,67.39.06,16.58,8.96,25.64,25.42,25.65,62.41.07,124.82.07,187.24,0,16.25-.02,25.28-8.99,25.37-25.14.12-22.83.12-45.67,0-68.5-.08-16.55-9.03-25.27-25.69-25.28-31.02-.02-62.04,0-93.06,0Zm-.26-59.3s0,.09,0,.14c-27.69,0-55.37-.18-83.05.09-9.83.1-17.92,7.15-20.18,16.25-2.34,9.43,1.08,19.64,9.57,24.08,4.85,2.54,10.93,3.76,16.46,3.79,51.47.28,102.94.17,154.41.13,2.77,0,5.56-.27,8.3-.69,10.27-1.61,17.69-9.86,18.24-20.12.74-13.87-8.64-23.54-23.48-23.63-26.76-.16-53.52-.05-80.27-.05Zm-81.93,252.24c12.36.06,22.37-9.78,22.43-22.04.05-12.08-10.3-22.39-22.39-22.29-12.05.1-21.8,9.86-21.94,21.97-.15,12.56,9.39,22.31,21.9,22.37Zm163.5-.02c12.57.1,22.26-9.47,22.28-22,.02-12.35-9.97-22.4-22.15-22.31-11.99.09-21.82,9.82-22.17,21.92-.34,12.08,9.71,22.29,22.05,22.38Z"/>
    </g>
  </g>
</svg>