<?xml version="1.0" encoding="UTF-8"?>
<svg id="_Слой_2" data-name="Слой 2" xmlns="http://www.w3.org/2000/svg" viewBox="0 0 402.19 303.64">
  <defs>
    <style>
      .cls-1 {
        fill: #fff;
        stroke-width: 0px;
      }

      .cls-2 {
        opacity: .3;
      }
    </style>
  </defs>
  <g id="_Слой_1-2" data-name="Слой 1">
    <g class="cls-2">
      <path class="cls-1" d="m81.91,257.39c0,8.35.09,16.23-.02,24.11-.18,13.45-8.49,21.71-21.98,21.86-8.76.1-17.53.1-26.29,0-12.56-.15-21.92-8.28-21.91-20.82.03-39,0-78.02,1.58-116.97.51-12.58,5.94-24.96,9.18-37.42.51-1.98,1.35-3.87,2.05-5.86-20.33-3.61-30.04-22.94-21.33-41.86,3.58-7.79,11.94-10.92,21.89-8.19,5.97,1.63,11.94,3.26,18.18,4.97,6.71-16.31,13.59-31.92,19.57-47.86C69.33,12.09,88.73-.14,106.09,0c63.84.53,127.69.19,191.54.22,19.47,0,35.3,10.78,42.77,28.9,6.42,15.59,12.83,31.18,19.27,46.76.14.35.54.6,1.15,1.24,5.81-1.6,11.8-3.25,17.8-4.89,13.71-3.75,23.27,3.3,23.55,17.4.05,2.29.01,4.59,0,6.89-.04,16.03-6.89,23.68-22.51,25.46,3.13,11.67,6.93,23.25,9.21,35.12,1.92,9.97,2.77,20.26,2.89,30.43.36,30.25.14,60.51.12,90.76,0,6.8-.5,13.89-6.15,18.32-4.03,3.15-9.28,5.93-14.24,6.44-9.7,1-19.59.45-29.39.27-11.17-.2-19.58-7.74-20.31-18.84-.58-8.87-.12-17.82-.12-27.09H81.91Zm119.96-131.71c43.17,0,86.34.02,129.51-.01,13.43,0,17.34-5.85,12.27-18.24-9.68-23.69-19.38-47.37-29.12-71.03-5.61-13.63-14.18-19.42-28.83-19.42-55.89-.02-111.79-.02-167.68,0-15.02,0-23.6,5.78-29.31,19.69-9.65,23.47-19.26,46.96-28.88,70.45-5.21,12.71-1.29,18.56,12.52,18.57,43.17.02,86.34,0,129.51,0Zm110.19,90.86c9.18,0,18.36.14,27.54-.04,8.23-.17,11.14-3.31,11.2-11.61.05-7.72.06-15.44,0-23.16-.07-7.96-3.08-11.14-10.86-11.17-18.57-.08-37.13-.08-55.7,0-7.98.03-10.72,2.92-10.82,11.15-.09,7.72-.07,15.44,0,23.16.08,8.67,2.89,11.52,11.75,11.65,8.97.13,17.94.03,26.91.03Zm-221.18-46c-9.59,0-19.19-.11-28.78.04-6.66.1-9.64,2.84-9.85,9.49-.29,8.96-.14,17.93-.04,26.9.07,6.09,3.63,9.38,9.42,9.44,19.39.2,38.79.27,58.19-.02,6.81-.1,9.48-3.5,9.56-10.5.09-8.34.1-16.69,0-25.03-.09-7.17-3.12-10.21-10.34-10.3-9.38-.12-18.77-.03-28.16-.02Z"/>
    </g>
  </g>
</svg>